<svg aria-hidden="true" style="position: absolute; width: 0; height: 0; overflow: hidden;" version="1.1" xmlns="http://www.w3.org/2000/svg" xmlns:xlink="http://www.w3.org/1999/xlink">
<defs>
<symbol id="icon-bx_bxs-check-circle" viewBox="0 0 32 32">
<path fill="#2fab73" style="fill: var(--color1, #2fab73)" d="M15.516 3.263c-7.058 0-12.8 5.742-12.8 12.8s5.742 12.8 12.8 12.8c7.058 0 12.8-5.742 12.8-12.8s-5.742-12.8-12.8-12.8zM12.957 21.712l-3.847-3.839c-0.5-0.499-0.501-1.309-0.002-1.809s1.31-0.502 1.81-0.002l2.037 2.033 5.871-5.871c0.5-0.5 1.31-0.5 1.81 0s0.5 1.31 0 1.81l-7.679 7.679z"></path>
</symbol>
<symbol id="icon-bx_bxs-server" viewBox="0 0 32 32">
<path fill="#f53838" style="fill: var(--color2, #f53838)" d="M26.24 4.543h-20.48c-0.679 0-1.33 0.27-1.81 0.75s-0.75 1.131-0.75 1.81v5.12c0 0.679 0.27 1.33 0.75 1.81s1.131 0.75 1.81 0.75h20.48c0.679 0 1.33-0.27 1.81-0.75s0.75-1.131 0.75-1.81v-5.12c0-0.679-0.27-1.33-0.75-1.81s-1.131-0.75-1.81-0.75zM19.84 9.663c0 0.707-0.573 1.28-1.28 1.28s-1.28-0.573-1.28-1.28c0-0.707 0.573-1.28 1.28-1.28s1.28 0.573 1.28 1.28zM24.96 9.663c0 0.707-0.573 1.28-1.28 1.28s-1.28-0.573-1.28-1.28c0-0.707 0.573-1.28 1.28-1.28s1.28 0.573 1.28 1.28zM26.24 17.343h-20.48c-0.679 0-1.33 0.27-1.81 0.75s-0.75 1.131-0.75 1.81v5.12c0 0.679 0.27 1.33 0.75 1.81s1.131 0.75 1.81 0.75h20.48c0.679 0 1.33-0.27 1.81-0.75s0.75-1.131 0.75-1.81v-5.12c0-0.679-0.27-1.33-0.75-1.81s-1.131-0.75-1.81-0.75zM19.84 22.463c0 0.707-0.573 1.28-1.28 1.28s-1.28-0.573-1.28-1.28c0-0.707 0.573-1.28 1.28-1.28s1.28 0.573 1.28 1.28zM24.96 22.463c0 0.707-0.573 1.28-1.28 1.28s-1.28-0.573-1.28-1.28c0-0.707 0.573-1.28 1.28-1.28s1.28 0.573 1.28 1.28z"></path>
</symbol>
<symbol id="icon-eva_arrow-bac" viewBox="0 0 31 32">
<path fill="#f53838" style="fill: var(--color2, #f53838)" d="M24.516 14.455h-15.303l4.684-5.626c0.219-0.264 0.324-0.603 0.293-0.944s-0.197-0.656-0.461-0.875c-0.264-0.219-0.603-0.324-0.944-0.293s-0.656 0.197-0.875 0.461l-6.452 7.742c-0.043 0.062-0.082 0.126-0.116 0.194 0 0.065 0 0.103-0.090 0.168-0.059 0.148-0.089 0.305-0.090 0.465 0.001 0.159 0.032 0.317 0.090 0.465 0 0.065 0 0.103 0.090 0.168 0.034 0.067 0.073 0.132 0.116 0.194l6.452 7.742c0.121 0.146 0.273 0.263 0.445 0.343s0.359 0.122 0.549 0.121c0.302 0.001 0.594-0.104 0.826-0.297 0.131-0.108 0.239-0.241 0.318-0.391s0.128-0.314 0.143-0.483-0.002-0.339-0.053-0.501c-0.050-0.162-0.132-0.313-0.241-0.443l-4.684-5.626h15.303c0.342 0 0.67-0.136 0.912-0.378s0.378-0.57 0.378-0.912c0-0.342-0.136-0.67-0.378-0.912s-0.57-0.378-0.912-0.378z"></path>
</symbol>
<symbol id="icon-eva_arrow-back-fill" viewBox="0 0 31 32">
<path fill="#f53838" style="fill: var(--color2, #f53838)" d="M24.516 14.455h-15.303l4.684-5.626c0.219-0.264 0.324-0.603 0.293-0.944s-0.197-0.656-0.461-0.875c-0.264-0.219-0.603-0.324-0.944-0.293s-0.656 0.197-0.875 0.461l-6.452 7.742c-0.043 0.062-0.082 0.126-0.116 0.194 0 0.065 0 0.103-0.090 0.168-0.059 0.148-0.089 0.305-0.090 0.465 0.001 0.159 0.032 0.317 0.090 0.465 0 0.065 0 0.103 0.090 0.168 0.034 0.067 0.073 0.132 0.116 0.194l6.452 7.742c0.121 0.146 0.273 0.263 0.445 0.343s0.359 0.122 0.549 0.121c0.302 0.001 0.594-0.104 0.826-0.297 0.131-0.108 0.239-0.241 0.318-0.391s0.128-0.314 0.143-0.483-0.002-0.339-0.053-0.501c-0.050-0.162-0.132-0.313-0.241-0.443l-4.684-5.626h15.303c0.342 0 0.67-0.136 0.912-0.378s0.378-0.57 0.378-0.912c0-0.342-0.136-0.67-0.378-0.912s-0.57-0.378-0.912-0.378z"></path>
</symbol>
<symbol id="icon-Facebook" viewBox="0 0 32 32">
<path fill="#f53838" style="fill: var(--color2, #f53838)" d="M23.256 10.087c0 4.182-3.39 7.572-7.572 7.572s-7.572-3.39-7.572-7.572c0-4.182 3.39-7.572 7.572-7.572s7.572 3.39 7.572 7.572z"></path>
<path fill="#fff" style="fill: var(--color3, #fff)" d="M15.684 2.515c-4.182 0-7.572 3.39-7.572 7.572s3.39 7.572 7.572 7.572c4.182 0 7.572-3.39 7.572-7.572s-3.39-7.572-7.572-7.572zM17.478 7.748h-1.138c-0.135 0-0.285 0.177-0.285 0.413v0.822h1.424l-0.215 1.172h-1.208v3.518h-1.343v-3.518h-1.219v-1.172h1.219v-0.689c0-0.989 0.686-1.793 1.628-1.793h1.138v1.247z"></path>
</symbol>
<symbol id="icon-gridicons_location" viewBox="0 0 31 32">
<path fill="#f53838" style="fill: var(--color2, #f53838)" d="M24.32 12.223c0-1.177-0.232-2.342-0.682-3.429s-1.11-2.075-1.942-2.907c-0.832-0.832-1.82-1.492-2.907-1.942s-2.252-0.682-3.429-0.682c-1.177 0-2.342 0.232-3.429 0.682s-2.075 1.11-2.907 1.942c-0.832 0.832-1.492 1.82-1.942 2.907s-0.682 2.252-0.682 3.429c0 1.775 0.525 3.427 1.414 4.819h-0.010c3.021 4.73 7.556 11.821 7.556 11.821l7.556-11.821h-0.009c0.922-1.438 1.412-3.111 1.413-4.819zM15.36 16.063c-1.018 0-1.995-0.405-2.715-1.125s-1.125-1.697-1.125-2.715c0-1.018 0.405-1.995 1.125-2.715s1.697-1.125 2.715-1.125c1.018 0 1.995 0.405 2.715 1.125s1.125 1.697 1.125 2.715c0 1.018-0.405 1.995-1.125 2.715s-1.697 1.125-2.715 1.125z"></path>
</symbol>
<symbol id="icon-Group-1300" viewBox="0 0 270 32">
<path fill="#dde0e4" style="fill: var(--color4, #dde0e4)" d="M150 16.506c0 8.284-6.716 15-15 15s-15-6.716-15-15c0-8.284 6.716-15 15-15s15 6.716 15 15z"></path>
<path fill="#dde0e4" style="fill: var(--color4, #dde0e4)" d="M210 16.506c0 8.284-6.716 15-15 15s-15-6.716-15-15c0-8.284 6.716-15 15-15s15 6.716 15 15z"></path>
<path fill="#dde0e4" style="fill: var(--color4, #dde0e4)" d="M270 16.506c0 8.284-6.716 15-15 15s-15-6.716-15-15c0-8.284 6.716-15 15-15s15 6.716 15 15z"></path>
<path fill="#f53838" style="fill: var(--color2, #f53838)" d="M15.114 31.505c-0.038 0-0.076 0-0.114 0s-0.076 0-0.114-0h-0.992v-0.040c-7.768-0.566-13.894-7.048-13.894-14.96s6.126-14.394 13.894-14.96v-0.040l60.274 0.023c0.275-0.015 0.553-0.023 0.832-0.023 8.284 0 15 6.716 15 15s-6.716 15-15 15c-0.279 0-0.556-0.008-0.832-0.023v0.022h-59.054z"></path>
</symbol>
<symbol id="icon-heroicons_sm-user" viewBox="0 0 32 32">
<path fill="#f53838" style="fill: var(--color2, #f53838)" d="M16 14.527c1.222 0 2.394-0.486 3.258-1.35s1.35-2.036 1.35-3.258-0.485-2.394-1.35-3.258c-0.864-0.864-2.036-1.35-3.258-1.35s-2.394 0.486-3.258 1.35c-0.864 0.864-1.35 2.036-1.35 3.258s0.485 2.394 1.35 3.258c0.864 0.864 2.036 1.35 3.258 1.35zM9.47 28.351c-2.332 0-4.296-1.96-3.404-4.115 0.54-1.304 1.332-2.49 2.331-3.488s2.184-1.79 3.488-2.331c1.304-0.54 2.703-0.818 4.115-0.818s2.81 0.278 4.115 0.818c1.305 0.54 2.49 1.332 3.488 2.331s1.79 2.184 2.331 3.488c0.892 2.154-1.072 4.115-3.404 4.115h-13.059z"></path>
</symbol>
<symbol id="icon-Instagram" viewBox="0 0 32 32">
<path fill="#f53838" style="fill: var(--color2, #f53838)" d="M23.346 10.087c0 4.182-3.39 7.572-7.572 7.572s-7.572-3.39-7.572-7.572c0-4.182 3.39-7.572 7.572-7.572s7.572 3.39 7.572 7.572z"></path>
<path fill="#fff" style="fill: var(--color3, #fff)" d="M18.141 10.087c0 0.628-0.249 1.229-0.693 1.673s-1.046 0.693-1.673 0.693c-0.628 0-1.229-0.249-1.673-0.693s-0.693-1.046-0.693-1.673c0-0.135 0.014-0.267 0.039-0.394h-0.827v3.153c0 0.219 0.177 0.397 0.397 0.397h5.517c0.105-0 0.206-0.042 0.28-0.117s0.116-0.175 0.116-0.28v-3.153h-0.827c0.024 0.128 0.039 0.259 0.039 0.394zM15.775 11.665c0.207-0 0.412-0.041 0.604-0.12s0.365-0.196 0.512-0.342c0.146-0.147 0.263-0.321 0.342-0.512s0.12-0.397 0.12-0.604c-0-0.207-0.041-0.412-0.12-0.604s-0.196-0.365-0.342-0.512c-0.147-0.146-0.321-0.263-0.512-0.342s-0.397-0.12-0.604-0.12c-0.418 0-0.82 0.166-1.116 0.462s-0.462 0.697-0.462 1.116 0.166 0.82 0.462 1.116c0.296 0.296 0.697 0.462 1.116 0.462zM17.668 8.431h0.946c0.063 0 0.123-0.025 0.168-0.069s0.070-0.105 0.070-0.167v-0.946c0-0.063-0.025-0.123-0.070-0.168s-0.105-0.069-0.168-0.069h-0.946c-0.063 0-0.123 0.025-0.168 0.069s-0.070 0.105-0.070 0.168v0.946c0.001 0.13 0.107 0.237 0.237 0.237zM15.775 2.515c-2.008 0-3.934 0.798-5.354 2.218s-2.218 3.346-2.218 5.354c0 2.008 0.798 3.934 2.218 5.354s3.346 2.218 5.354 2.218c0.994 0 1.979-0.196 2.898-0.576s1.753-0.938 2.457-1.641c0.703-0.703 1.261-1.538 1.641-2.456s0.576-1.903 0.576-2.898-0.196-1.979-0.576-2.898c-0.381-0.919-0.938-1.753-1.641-2.456s-1.538-1.261-2.457-1.641c-0.919-0.381-1.903-0.576-2.898-0.576zM19.718 13.154c0 0.482-0.394 0.876-0.876 0.876h-6.135c-0.482 0-0.876-0.394-0.876-0.876v-6.135c0-0.482 0.394-0.876 0.876-0.876h6.135c0.482 0 0.876 0.394 0.876 0.876v6.135z"></path>
</symbol>
<symbol id="icon-jam_check" viewBox="0 0 32 32">
<path fill="#2fab73" style="fill: var(--color1, #2fab73)" d="M14.587 22.118c-0.168 0-0.334-0.032-0.49-0.097s-0.296-0.158-0.415-0.277l-5.43-5.431c-0.122-0.118-0.22-0.259-0.287-0.415s-0.103-0.324-0.104-0.494 0.031-0.339 0.095-0.496c0.064-0.157 0.159-0.3 0.279-0.421s0.263-0.215 0.42-0.28c0.157-0.064 0.326-0.097 0.496-0.096s0.338 0.037 0.494 0.104 0.298 0.164 0.416 0.287l4.525 4.525 8.147-8.145c0.24-0.24 0.566-0.375 0.905-0.375s0.665 0.135 0.905 0.375 0.375 0.566 0.375 0.905c0 0.34-0.135 0.665-0.375 0.905l-9.052 9.052c-0.119 0.119-0.26 0.213-0.415 0.277s-0.322 0.097-0.49 0.097z"></path>
</symbol>
<symbol id="icon-Twitter" viewBox="0 0 32 32">
<path fill="#f53838" style="fill: var(--color2, #f53838)" d="M23.527 10.087c0 4.182-3.39 7.572-7.572 7.572s-7.572-3.39-7.572-7.572c0-4.182 3.39-7.572 7.572-7.572s7.572 3.39 7.572 7.572z"></path>
<path fill="#fff" style="fill: var(--color3, #fff)" d="M15.955 2.515c-4.182 0-7.572 3.39-7.572 7.572s3.39 7.572 7.572 7.572c4.182 0 7.572-3.39 7.572-7.572s-3.39-7.572-7.572-7.572zM19.035 8.718c0.003 0.065 0.004 0.129 0.004 0.192 0 1.972-1.499 4.244-4.243 4.244-0.811 0.001-1.604-0.231-2.286-0.67 0.116 0.014 0.235 0.020 0.356 0.020 0.699 0 1.342-0.237 1.852-0.638-0.311-0.006-0.612-0.109-0.862-0.295s-0.435-0.444-0.531-0.74c0.223 0.042 0.453 0.034 0.673-0.026-0.338-0.068-0.641-0.251-0.859-0.518s-0.337-0.6-0.337-0.945v-0.018c0.201 0.111 0.431 0.179 0.676 0.187-0.316-0.211-0.54-0.534-0.626-0.905s-0.027-0.759 0.165-1.088c0.375 0.461 0.842 0.837 1.371 1.106s1.109 0.423 1.702 0.453c-0.075-0.32-0.043-0.656 0.092-0.956s0.366-0.546 0.655-0.701c0.29-0.155 0.623-0.21 0.947-0.157s0.622 0.213 0.846 0.453c0.334-0.066 0.654-0.189 0.946-0.362-0.111 0.346-0.344 0.639-0.655 0.826 0.296-0.036 0.584-0.115 0.857-0.236-0.2 0.3-0.452 0.561-0.744 0.772z"></path>
</symbol>
</defs>
</svg>
